<svg width="57" height="58" viewBox="0 0 57 58" fill="none" xmlns="http://www.w3.org/2000/svg">
<path d="M14.1662 20.3799C14.1662 17.8023 16.5299 15.7105 16.5299 15.7105C16.5299 15.7105 18.796 17.8023 18.796 20.3799C18.796 22.9576 16.5299 25.0494 16.5299 25.0494C16.5299 25.0494 14.1662 22.9576 14.1662 20.3799ZM16.5299 5.31732C16.5299 5.31732 10.7964 10.4495 10.7964 16.7812C10.7964 23.1129 16.5299 28.245 16.5299 28.245C16.5299 28.245 22.169 23.1129 22.169 16.7812C22.1658 10.4495 16.5299 5.31732 16.5299 5.31732Z" fill="#9E0B0F"/>
<path d="M16.5331 32.1742L5.15073 21.4077V57.8283H10.3308V33.4564L16.5331 39.6163L22.5825 33.4564V47.5078H27.8081V21.4077L16.5331 32.1742Z" fill="#9E0B0F"/>
<path d="M42.1696 49.2625L40.4831 54.3715V49.2625H38.5231V57.8513H40.5612L42.2087 52.7985V57.8513H44.1785V49.2625H42.1696Z" fill="#9E0B0F"/>
<path d="M47.6362 51.0107L48.2288 54.6194H46.946L47.6362 51.0107ZM46.5715 49.2625L44.6929 57.848H46.3632L46.7115 56.0965H48.4892L48.8148 57.848H50.8041L49.1274 49.2625H46.5715Z" fill="#9E0B0F"/>
<path d="M11.6429 49.2527V57.8481H16.595V56.0933H13.6224V54.3485H15.6183V52.6994H13.6224V50.9777H16.595V49.2527H11.6429Z" fill="#9E0B0F"/>
<path d="M22.2048 49.2461L21.1597 54.246L20.2253 49.2461H17.5034V57.8514H19.0141V51.2983L20.2709 57.8514H21.5179L22.8821 51.2983L22.8658 57.8514H24.8225V49.2461H22.2048Z" fill="#9E0B0F"/>
<path d="M37.9175 51.8038C37.9175 49.6822 36.3482 49.2625 35.2086 49.2625H32.337V57.848H34.3165V54.3451H35.2086C36.371 54.3484 37.9175 53.8593 37.9175 51.8038ZM35.8891 51.8567C35.8956 52.6795 35.1598 52.9241 34.6682 52.9241H34.3133V50.8355H34.6324C35.2054 50.8322 35.8858 51.0305 35.8891 51.8567Z" fill="#9E0B0F"/>
<path d="M57 57.8315V49.2592H51.986V52.435C51.986 55.9776 52.1292 56.503 51.452 56.503C51.3023 56.503 51.1525 56.503 50.9962 56.4336V57.7852C51.3381 57.9405 51.566 58 51.986 58C52.9595 58 53.6009 57.5572 53.6269 55.624C53.6335 55.1316 53.6237 54.5434 53.6237 53.8362V50.9347H55.0237V57.8315H57Z" fill="#9E0B0F"/>
<path d="M31.6468 53.5684C31.6468 54.9465 31.3765 56.0271 30.8328 56.8169C30.2923 57.6067 29.5467 58 28.6058 58C27.6584 58 26.916 57.6001 26.3788 56.8037C25.8383 56.004 25.5681 54.93 25.5681 53.5717C25.5681 52.2069 25.8383 51.1263 26.3788 50.3299C26.916 49.5335 27.6584 49.1369 28.6058 49.1369C29.5467 49.1369 30.2923 49.5335 30.8328 50.3233C31.3765 51.1131 31.6468 52.197 31.6468 53.5684ZM29.5598 53.5552C29.5598 53.0331 29.5337 52.5936 29.4816 52.2301C29.4328 51.8632 29.3644 51.5658 29.2798 51.3312C29.1919 51.0933 29.0909 50.9247 28.9802 50.8223C28.8695 50.7165 28.7523 50.6637 28.6351 50.6637C28.5081 50.6637 28.3942 50.7132 28.29 50.8091C28.1858 50.9049 28.0881 51.0734 27.9905 51.318C27.9058 51.5427 27.8374 51.8434 27.7853 52.2168C27.73 52.5903 27.7039 53.0397 27.7039 53.5552C27.7039 54.0906 27.73 54.5334 27.7821 54.8837C27.8309 55.2373 27.8993 55.5314 27.9872 55.7693C28.0751 56.0106 28.1728 56.1824 28.2867 56.2849C28.4007 56.3873 28.5179 56.4402 28.6351 56.4402C28.7556 56.4402 28.8728 56.384 28.99 56.275C29.104 56.1659 29.2016 55.9908 29.283 55.7561C29.3677 55.505 29.4393 55.2076 29.4849 54.8705C29.537 54.54 29.5598 54.0972 29.5598 53.5552Z" fill="#9E0B0F"/>
<path d="M0 0V57.8579H2.59816V2.62059H54.4246V48.0827H57V0H0Z" fill="#9E0B0F"/>
<path d="M0 57.8579V0H57V48.0794H54.4246V2.62059H2.59816V57.8579H0Z" fill="#9E0B0F"/>
</svg>
