<svg width="27" height="27" viewBox="0 0 27 27" fill="none" xmlns="http://www.w3.org/2000/svg">
<path d="M23.625 3.375H22.5002V1.12482C22.5002 0.504141 21.996 0 21.3748 0H20.25C19.6288 0 19.1252 0.504141 19.1252 1.12482V3.375H7.87482V1.12482C7.87482 0.504141 7.37121 0 6.75 0H5.62518C5.00396 0 4.49982 0.504141 4.49982 1.12482V3.375H3.375C1.514 3.375 0 4.889 0 6.75V23.625C0 25.4855 1.514 27 3.375 27H23.625C25.4855 27 27 25.4855 27 23.625V6.75C27 4.889 25.4855 3.375 23.625 3.375ZM24.7498 23.625C24.7498 24.2446 24.2446 24.7498 23.625 24.7498H3.375C2.75537 24.7498 2.25018 24.2446 2.25018 23.625V11.2952H24.7498V23.625Z" fill="#9E0B0F" fill-opacity="0.3"/>
</svg>
