<svg width="57" height="58" viewBox="0 0 57 58" fill="none" xmlns="http://www.w3.org/2000/svg">
<path d="M14.1657 20.3799C14.1657 17.8022 16.5294 15.7104 16.5294 15.7104C16.5294 15.7104 18.7955 17.8022 18.7955 20.3799C18.7955 22.9575 16.5294 25.0494 16.5294 25.0494C16.5294 25.0494 14.1657 22.9575 14.1657 20.3799ZM16.5294 5.31726C16.5294 5.31726 10.7959 10.4494 10.7959 16.7811C10.7959 23.1128 16.5294 28.245 16.5294 28.245C16.5294 28.245 22.1685 23.1128 22.1685 16.7811C22.1653 10.4494 16.5294 5.31726 16.5294 5.31726Z" fill="#9E0B0F"/>
<path d="M16.5328 32.1743L5.15039 21.4077V57.8283H10.3304V33.4565L16.5328 39.6164L22.5822 33.4565V47.5079H27.8078V21.4077L16.5328 32.1743Z" fill="#9E0B0F"/>
<path d="M42.17 49.2625L40.4835 54.3714V49.2625H38.5234V57.8512H40.5616L42.2091 52.7984V57.8512H44.1788V49.2625H42.17Z" fill="#9E0B0F"/>
<path d="M47.6366 51.0106L48.2292 54.6193H46.9464L47.6366 51.0106ZM46.572 49.2625L44.6934 57.8479H46.3636L46.712 56.0965H48.4897L48.8152 57.8479H50.8046L49.1278 49.2625H46.572Z" fill="#9E0B0F"/>
<path d="M11.6426 49.2527V57.8481H16.5947V56.0933H13.6221V54.3485H15.618V52.6994H13.6221V50.9777H16.5947V49.2527H11.6426Z" fill="#9E0B0F"/>
<path d="M22.2044 49.2461L21.1592 54.246L20.2248 49.2461H17.5029V57.8514H19.0136V51.2983L20.2704 57.8514H21.5174L22.8816 51.2983L22.8653 57.8514H24.8221V49.2461H22.2044Z" fill="#9E0B0F"/>
<path d="M37.9174 51.8037C37.9174 49.6821 36.3481 49.2625 35.2086 49.2625H32.3369V57.8479H34.3165V54.345H35.2086C36.3709 54.3483 37.9174 53.8592 37.9174 51.8037ZM35.889 51.8566C35.8955 52.6795 35.1597 52.924 34.6681 52.924H34.3132V50.8355H34.6323C35.2053 50.8322 35.8858 51.0304 35.889 51.8566Z" fill="#9E0B0F"/>
<path d="M56.9999 57.8314V49.2592H51.9859V52.4349C51.9859 55.9775 52.1291 56.503 51.4519 56.503C51.3021 56.503 51.1524 56.503 50.9961 56.4336V57.7852C51.338 57.9405 51.5659 58 51.9859 58C52.9594 58 53.6008 57.5571 53.6268 55.6239C53.6333 55.1315 53.6236 54.5433 53.6236 53.8361V50.9346H55.0236V57.8314H56.9999Z" fill="#9E0B0F"/>
<path d="M31.647 53.5684C31.647 54.9464 31.3768 56.027 30.833 56.8169C30.2926 57.6067 29.547 57.9999 28.6061 57.9999C27.6586 57.9999 26.9163 57.6001 26.3791 56.8036C25.8386 56.0039 25.5684 54.9299 25.5684 53.5717C25.5684 52.2069 25.8386 51.1262 26.3791 50.3298C26.9163 49.5334 27.6586 49.1368 28.6061 49.1368C29.547 49.1368 30.2926 49.5334 30.833 50.3232C31.3768 51.113 31.647 52.197 31.647 53.5684ZM29.56 53.5552C29.56 53.033 29.534 52.5935 29.4819 52.23C29.433 51.8632 29.3647 51.5658 29.28 51.3311C29.1921 51.0932 29.0912 50.9247 28.9805 50.8222C28.8698 50.7165 28.7526 50.6636 28.6354 50.6636C28.5084 50.6636 28.3944 50.7132 28.2902 50.809C28.1861 50.9048 28.0884 51.0734 27.9907 51.3179C27.906 51.5426 27.8377 51.8434 27.7856 52.2168C27.7302 52.5902 27.7042 53.0396 27.7042 53.5552C27.7042 54.0905 27.7302 54.5333 27.7823 54.8836C27.8312 55.2372 27.8995 55.5313 27.9874 55.7693C28.0754 56.0105 28.173 56.1824 28.287 56.2848C28.4009 56.3873 28.5181 56.4401 28.6354 56.4401C28.7558 56.4401 28.873 56.3839 28.9902 56.2749C29.1042 56.1658 29.2019 55.9907 29.2833 55.7561C29.3679 55.5049 29.4395 55.2075 29.4851 54.8704C29.5372 54.5399 29.56 54.0971 29.56 53.5552Z" fill="#9E0B0F"/>
<path d="M0 0V57.8579H2.59816V2.62059H54.4246V48.0827H57V0H0Z" fill="#9E0B0F"/>
<path d="M0 57.8579V0H57V48.0794H54.4246V2.62059H2.59816V57.8579H0Z" fill="#9E0B0F"/>
</svg>
